<svg width="55" height="32" viewBox="0 0 55 32" fill="none" xmlns="http://www.w3.org/2000/svg">
<path d="M13.9689 18.5372C13.9435 18.6379 13.9492 18.8409 13.9492 18.8409V24.7767C13.9492 24.7767 13.96 24.9249 13.8895 24.9955C13.8199 25.065 13.6543 25.0759 13.6543 25.0759H11.3052C11.3052 25.0759 11.1655 25.0571 11.1035 24.9951C11.0295 24.9211 11.0424 24.7618 11.0424 24.7618V18.8335C11.0424 18.8335 11.0353 18.6371 11.0125 18.5468C10.9887 18.4522 10.9038 18.2966 10.9038 18.2966L5.44668 8.15345C5.44668 8.15345 5.3797 8.05018 5.42248 7.97859C5.46376 7.90951 5.56957 7.93312 5.56957 7.93312H8.2299C8.2299 7.93312 8.39063 7.93984 8.46604 7.98645C8.52808 8.02479 8.5937 8.12884 8.5937 8.12884L12.4679 15.8771C12.4679 15.8771 12.4924 15.9537 12.5596 15.9538C12.6244 15.9539 12.6454 15.8836 12.6454 15.8836L16.5325 8.15655C16.5325 8.15655 16.6091 8.02209 16.6801 7.97835C16.7609 7.92854 16.9297 7.93312 16.9297 7.93312H19.3455C19.3455 7.93312 19.4872 7.91006 19.5416 8.0011C19.5942 8.08929 19.5173 8.20431 19.5173 8.20431L14.0988 18.252C14.0988 18.252 13.9946 18.4354 13.9689 18.5372ZM32.4202 8.06623C32.5562 8.21549 32.5666 8.43462 32.5666 8.43462V19.2002C32.5666 20.3016 32.3555 21.3244 31.9331 22.2685C31.5108 23.2043 30.84 23.9621 29.9207 24.5418C29.0097 25.1132 27.8089 25.3989 26.3183 25.3989C25.3742 25.3989 24.5004 25.2623 23.6971 24.9889C22.9924 24.7492 22.3259 24.4202 21.6976 24.0019C21.6097 23.9435 21.5695 23.8946 21.5487 23.7907C21.5282 23.6882 21.6058 23.5571 21.6058 23.5571L22.4403 22.2572C22.4403 22.2572 22.5312 22.1338 22.6372 22.11C22.7461 22.0856 22.8067 22.1037 22.9003 22.1602C23.4706 22.5042 24.0013 22.7473 24.4921 22.8896C25.0719 23.0469 25.6434 23.1256 26.2065 23.1256C27.2831 23.1256 28.1319 22.782 28.7531 22.0946C29.3825 21.4072 29.6972 20.4217 29.6972 19.138V10.5003C29.6972 10.5003 29.6951 10.306 29.6112 10.2221C29.5173 10.1282 29.2986 10.1443 29.2986 10.1443H24.8578C24.8578 10.1443 24.7075 10.1455 24.6126 10.0353C24.527 9.93582 24.5419 9.78788 24.5419 9.78788V8.28913C24.5419 8.28913 24.5321 8.17012 24.6437 8.04629C24.7386 7.94108 24.8763 7.93312 24.8763 7.93312H32.042C32.042 7.93312 32.2644 7.89518 32.4202 8.06623Z" class="dynamic"/>
<path d="M37.3373 23.0014C37.3373 22.3389 37.5651 21.7758 38.0205 21.312C38.4843 20.84 39.0558 20.6039 39.7349 20.6039C40.4139 20.6039 40.9854 20.84 41.4492 21.312C41.913 21.7758 42.1448 22.3389 42.1448 23.0014C42.1448 23.6639 41.913 24.2313 41.4492 24.7033C40.9854 25.1754 40.4139 25.4113 39.7349 25.4113C39.0558 25.4113 38.4843 25.1754 38.0205 24.7033C37.5651 24.2313 37.3373 23.6639 37.3373 23.0014Z" class="dynamic"/>
<path fill-rule="evenodd" clip-rule="evenodd" d="M42.2549 29.0347L51.5279 16.7449C51.8606 16.304 51.8606 15.696 51.5279 15.2551L42.2549 2.96526C42.0212 2.65553 41.6557 2.47343 41.2677 2.47343L3.71019 2.47343C3.02717 2.47343 2.47348 3.02713 2.47348 3.71015L2.47348 28.2899C2.47348 28.9729 3.02717 29.5266 3.7102 29.5266L41.2677 29.5266C41.6557 29.5266 42.0212 29.3445 42.2549 29.0347ZM53.5024 18.2347C54.5003 16.912 54.5003 15.088 53.5024 13.7653L44.2294 1.47549C43.5283 0.546294 42.4317 0 41.2677 0L3.71019 1.08618e-06C1.66114 1.14266e-06 4.57764e-05 1.66109 4.57764e-05 3.71015L4.57764e-05 28.2899C4.57764e-05 30.3389 1.66114 32 3.7102 32L41.2677 32C42.4317 32 43.5283 31.4537 44.2294 30.5245L53.5024 18.2347Z" class="dynamic"/>
<style>path.dynamic { fill: #1e1e1e; }</style>
</svg>