<svg width="67" height="45" viewBox="0 0 86 57" fill="none" xmlns="http://www.w3.org/2000/svg">
<path d="M24.8704 42.5722C23.9519 41.6537 23.9519 40.1644 24.8704 39.2459L53.769 10.3473C54.6876 9.42871 56.1768 9.42871 57.0954 10.3473L61.2576 14.5095C62.1761 15.428 62.1761 16.9173 61.2576 17.8358L32.359 46.7344C31.4404 47.653 29.9512 47.653 29.0326 46.7344L24.8704 42.5722Z" fill="#FFB800"/>
<path class="dynamic" d="M60.238 50.7046C59.3194 49.7861 59.3194 48.2968 60.238 47.3783L77.2856 30.3307C78.2041 29.4121 79.6934 29.4121 80.612 30.3307L84.8648 34.5835C85.7834 35.5021 85.7834 36.9914 84.8648 37.9099L67.8172 54.9575C66.8987 55.8761 65.4094 55.8761 64.4909 54.9575L60.238 50.7046Z" fill="#1F1F1F"/>
<path class="dynamic" d="M84.8489 22.9242C85.7675 22.0057 85.7675 20.5164 84.8489 19.5978L66.9141 1.66303C65.9956 0.744483 64.5063 0.744485 63.5877 1.66303L59.3906 5.8602C58.472 6.77875 58.472 8.26801 59.3906 9.18656L77.3254 27.1214C78.2439 28.0399 79.7332 28.0399 80.6517 27.1214L84.8489 22.9242Z" fill="#1F1F1F"/>
<path class="dynamic" d="M27.6105 51.8237C28.5291 50.9051 28.5291 49.4158 27.6105 48.4973L9.44378 30.3305C8.52523 29.412 7.03597 29.412 6.11742 30.3305L1.66303 34.7849C0.744485 35.7035 0.744483 37.1927 1.66303 38.1113L19.8298 56.278C20.7483 57.1966 22.2376 57.1966 23.1561 56.278L27.6105 51.8237Z" fill="#1F1F1F"/>
<path class="dynamic" d="M2.21034 23.2535C1.29179 22.3349 1.29179 20.8457 2.21034 19.9271L19.2579 2.87951C20.1765 1.96096 21.6658 1.96096 22.5843 2.87951L26.4525 6.74771C27.3711 7.66626 27.3711 9.15552 26.4525 10.0741L9.40491 27.1217C8.48636 28.0402 6.9971 28.0402 6.07855 27.1217L2.21034 23.2535Z" fill="#1F1F1F"/>
<style>path.dynamic { fill: #1F1F1F; }@media (prefers-color-scheme: dark) {path.dynamic { fill: #D7D7D3; }}</style>
</svg>
