<?xml version="1.0" standalone="no"?>
<!DOCTYPE svg PUBLIC "-//W3C//DTD SVG 20010904//EN"
 "http://www.w3.org/TR/2001/REC-SVG-20010904/DTD/svg10.dtd">
<svg version="1.0" xmlns="http://www.w3.org/2000/svg"
 width="700.000000pt" height="700.000000pt" viewBox="0 0 700.000000 700.000000"
 preserveAspectRatio="xMidYMid meet">
<metadata>
Created by potrace 1.14, written by Peter Selinger 2001-2017
</metadata>
<g transform="translate(0.000000,700.000000) scale(0.100000,-0.100000)"
fill="#000000" stroke="none">
<path d="M5627 6345 c-21 -7 -40 -15 -42 -17 -3 -1 -105 -102 -227 -224 -235
-232 -289 -281 -430 -387 -347 -260 -811 -444 -1268 -502 -112 -14 -282 -53
-437 -101 -426 -131 -801 -379 -1058 -699 -95 -119 -159 -229 -256 -440 -26
-58 -72 -212 -94 -318 -28 -134 -39 -438 -22 -587 11 -92 41 -229 75 -343 21
-69 26 -100 18 -105 -6 -4 -42 -23 -81 -43 -382 -195 -661 -431 -859 -729 -91
-137 -188 -344 -232 -495 -71 -246 -84 -372 -44 -442 23 -42 75 -85 116 -97
11 -3 25 -21 32 -40 26 -70 98 -123 181 -133 39 -4 60 0 103 20 81 36 114 87
133 197 14 84 59 242 92 325 226 566 736 912 1726 1170 212 55 401 119 562
191 22 10 42 18 45 19 18 3 262 132 340 180 148 90 383 253 410 285 3 3 19 16
35 29 104 80 313 282 447 432 111 126 275 334 303 387 58 109 -5 262 -122 297
-13 3 -23 12 -23 19 0 27 -61 103 -102 126 -34 19 -57 25 -108 25 -90 -1 -132
-29 -215 -145 -22 -30 -42 -57 -45 -60 -3 -3 -23 -27 -44 -55 -133 -168 -360
-399 -532 -541 -211 -174 -493 -346 -734 -449 -47 -20 -94 -40 -105 -45 -66
-28 -221 -77 -397 -124 -112 -30 -240 -66 -285 -79 -46 -14 -83 -22 -83 -18
-1 3 -7 49 -15 101 -14 95 -14 340 0 425 66 394 286 725 638 959 72 48 279
161 300 164 4 0 42 14 85 31 85 32 239 78 299 87 21 3 41 8 44 10 6 3 55 12
104 19 11 1 36 5 55 9 19 3 51 8 71 10 81 12 286 59 412 96 423 123 821 342
1148 630 100 89 101 89 114 10 4 -25 9 -54 11 -65 9 -48 34 -194 39 -235 3
-25 8 -56 10 -70 3 -22 8 -61 20 -170 22 -190 30 -341 30 -580 0 -223 -6 -349
-21 -471 -7 -62 -25 -190 -30 -214 -2 -11 -7 -36 -10 -55 -41 -232 -159 -559
-274 -760 -84 -145 -250 -356 -350 -444 -260 -228 -523 -366 -858 -451 -162
-41 -303 -58 -492 -59 -181 -1 -240 4 -350 30 -36 9 -72 17 -80 19 -52 11
-162 55 -270 108 -107 53 -133 62 -180 62 -149 0 -250 -141 -199 -279 21 -58
48 -89 107 -123 25 -15 51 -41 61 -62 26 -50 64 -82 151 -128 154 -81 397
-167 525 -187 64 -9 108 -16 140 -22 56 -10 369 -12 445 -4 41 5 98 12 125 15
115 13 248 41 388 81 563 163 1021 510 1334 1010 46 74 183 342 183 359 0 4 7
21 15 38 33 73 120 357 141 462 2 11 6 31 9 45 12 51 45 256 51 315 4 33 8 62
10 66 1 3 6 59 11 125 14 218 8 698 -12 867 -2 18 -6 59 -10 92 -7 71 -13 127
-20 175 -3 19 -8 53 -10 75 -35 284 -199 1042 -246 1135 -21 43 -52 72 -105
98 -25 13 -44 30 -47 44 -10 36 -62 94 -104 113 -48 23 -117 28 -166 10z"/>
</g>
</svg>
