<?xml version="1.0" standalone="no"?>
<!DOCTYPE svg PUBLIC "-//W3C//DTD SVG 20010904//EN"
 "http://www.w3.org/TR/2001/REC-SVG-20010904/DTD/svg10.dtd">
<svg version="1.0" xmlns="http://www.w3.org/2000/svg"
 width="16pt" height="16pt" viewBox="0 0 1072.000000 1072.000000"
 preserveAspectRatio="xMidYMid meet">
<metadata>
Created by potrace 1.14, written by Peter Selinger 2001-2017
</metadata>
<g transform="translate(0.000000,1072.000000) scale(0.100000,-0.100000)"
fill="#000000" stroke="none">
<path d="M8040 8770 c-68 -19 -122 -66 -390 -337 -309 -314 -310 -315 -310
-338 0 -8 -4 -15 -8 -15 -15 0 -20 -126 -8 -184 4 -16 20 -47 35 -70 16 -22
531 -542 1144 -1155 819 -819 1127 -1121 1163 -1140 39 -20 62 -25 124 -25
120 0 137 12 455 331 271 271 319 325 332 374 15 61 11 151 -9 200 -11 27 -25
49 -29 49 -5 0 -9 5 -9 11 0 20 -2257 2268 -2284 2275 -14 3 -26 9 -26 13 0 9
-1 9 -90 14 -36 2 -76 1 -90 -3z"/>
<path d="M2628 8620 c-10 -6 -18 -8 -18 -5 0 3 -19 -4 -41 -16 -50 -25 -2178
-2148 -2204 -2198 -24 -48 -29 -69 -29 -136 -1 -77 7 -109 38 -155 13 -21 142
-154 286 -298 296 -295 310 -305 430 -306 60 0 85 5 123 24 37 19 301 277
1110 1086 584 584 1070 1072 1081 1085 55 66 68 208 27 292 -15 32 -103 127
-283 307 -255 256 -310 305 -359 316 -49 12 -145 14 -161 4z"/>
<path d="M6855 7712 c-11 -2 -31 -9 -45 -15 -14 -6 -29 -9 -34 -8 -5 1 -822
-811 -1816 -1805 -1810 -1809 -1840 -1840 -1856 -1919 -14 -62 -3 -137 28
-198 26 -52 577 -601 629 -628 52 -26 71 -30 141 -31 119 0 3 -109 1958 1846
1332 1332 1795 1802 1816 1839 22 41 28 66 29 121 4 124 -3 133 -325 456 -268
270 -363 351 -391 335 -5 -4 -9 -3 -9 2 0 9 -93 13 -125 5z"/>
<path d="M1035 5272 c-76 -16 -116 -50 -417 -351 -346 -346 -352 -355 -352
-476 1 -52 7 -83 25 -119 18 -40 247 -274 1164 -1190 846 -846 1153 -1147
1188 -1165 38 -19 63 -24 120 -24 80 0 86 1 139 27 51 24 636 611 667 668 41
77 33 227 -17 291 -9 11 -529 533 -1154 1159 -948 949 -1144 1142 -1185 1159
-46 20 -136 31 -178 21z"/>
<path d="M9717 5269 c-21 -5 -52 -16 -69 -25 -27 -14 -2133 -2111 -2179 -2170
-27 -35 -50 -105 -50 -158 -1 -122 10 -137 325 -454 247 -249 366 -359 366
-336 0 3 7 0 16 -7 29 -24 160 -17 219 12 40 19 258 231 1122 1095 696 696
1079 1086 1092 1112 45 89 40 208 -12 288 -12 18 -151 162 -309 319 -216 215
-298 290 -333 306 -52 23 -131 31 -188 18z"/>
</g>
</svg>
